<?xml version="1.0" encoding="UTF-8"?>
<svg width="678px" height="491px" viewBox="0 0 678 491" version="1.1" xmlns="http://www.w3.org/2000/svg" xmlns:xlink="http://www.w3.org/1999/xlink">
    <title>Blog Art</title>
    <g id="Blog-Art" stroke="none" stroke-width="1" fill="none" fill-rule="evenodd">
        <rect id="Rectangle" stroke="#E2E2E2" stroke-width="6" x="3" y="3" width="672" height="485" rx="20"></rect>
        <g id="Group-2" transform="translate(37.000000, 101.000000)">
            <rect id="Rectangle" stroke="#E2E2E2" stroke-width="5" x="2.5" y="2.5" width="242" height="208" rx="20"></rect>
            <path d="M85.726,133 L89.662,120.29 L106.8,120.29 L110.9,133 L122.708,133 L104.258,75.6 L93.024,75.6 L74.492,133 L85.726,133 Z M104.586,111.27 L92.286,111.27 L98.026,92.082 L98.764,92.082 L104.586,111.27 Z M141.158,133.656 C144.602,133.656 147.335333,133.041 149.358,131.811 C151.380667,130.581 152.938667,129.118667 154.032,127.424 L154.032,127.424 L154.442,127.424 L155.508,133 L169.12,133 L169.12,123.98 L163.79,123.98 C163.735333,123.269333 163.653333,122.531333 163.544,121.766 C163.434667,120.344667 163.38,119.06 163.38,117.912 C163.38,116.381333 163.475667,114.632 163.667,112.664 C163.858333,110.696 163.954,108.318 163.954,105.53 C163.954,103.343333 163.680667,101.375333 163.134,99.626 C162.587333,97.8766667 161.699,96.3733333 160.469,95.116 C159.239,93.8586667 157.626333,92.8883333 155.631,92.205 C153.635667,91.5216667 151.216667,91.18 148.374,91.18 C144.438,91.18 141.035,91.5353333 138.165,92.246 C135.295,92.9566667 132.766667,93.804 130.58,94.788 L130.58,94.788 L133.122,103.152 C134.652667,102.441333 136.538667,101.730667 138.78,101.02 C141.021333,100.309333 143.536,99.954 146.324,99.954 C148.674667,99.954 150.451333,100.405 151.654,101.307 C152.856667,102.209 153.458,103.698667 153.458,105.776 L153.458,105.776 L153.458,107.334 C153.458,107.880667 153.403333,108.427333 153.294,108.974 C151.708667,108.864667 150.369333,108.755333 149.276,108.646 C148.182667,108.536667 147.144,108.482 146.16,108.482 C143.372,108.482 140.843667,108.741667 138.575,109.261 C136.306333,109.780333 134.365667,110.573 132.753,111.639 C131.140333,112.705 129.910333,114.071667 129.063,115.739 C128.215667,117.406333 127.792,119.388 127.792,121.684 C127.792,125.292 128.994667,128.189333 131.4,130.376 C133.805333,132.562667 137.058,133.656 141.158,133.656 Z M144.602,124.882 C142.524667,124.882 141.035,124.458333 140.133,123.611 C139.231,122.763667 138.78,121.574667 138.78,120.044 C138.78,119.114667 139.026,118.322 139.518,117.666 C140.01,117.01 140.666,116.477 141.486,116.067 C142.306,115.657 143.235333,115.356333 144.274,115.165 C145.312667,114.973667 146.351333,114.878 147.39,114.878 C148.647333,114.878 149.822667,114.946333 150.916,115.083 C152.009333,115.219667 152.829333,115.342667 153.376,115.452 L153.376,115.452 L153.376,120.372 C152.774667,121.465333 151.818,122.490333 150.506,123.447 C149.194,124.403667 147.226,124.882 144.602,124.882 Z" id="Aa" fill="#E2E2E2" fill-rule="nonzero"></path>
        </g>
        <g id="Group" transform="translate(507.000000, 331.000000)">
            <polygon id="T" fill="#E2E2E2" fill-rule="nonzero" points="79.366 84 79.366 77.07 72.247 77.07 72.247 46.83 78.232 46.83 78.232 54.453 85.162 54.453 85.162 39.9 50.638 39.9 50.638 54.453 57.568 54.453 57.568 46.83 63.616 46.83 63.616 77.07 56.434 77.07 56.434 84"></polygon>
            <rect id="Rectangle" stroke="#E2E2E2" stroke-width="5" x="2.5" y="2.5" width="132" height="122" rx="20"></rect>
        </g>
        <path d="M467.5,449 C469.985281,449 472,451.014719 472,453.5 C472,455.985281 469.985281,458 467.5,458 L47.5,458 C45.0147186,458 43,455.985281 43,453.5 C43,451.014719 45.0147186,449 47.5,449 L467.5,449 Z M467.5,421 C469.985281,421 472,423.014719 472,425.5 C472,427.985281 469.985281,430 467.5,430 L378.5,430 C376.014719,430 374,427.985281 374,425.5 C374,423.014719 376.014719,421 378.5,421 L467.5,421 Z M354.5,421 C356.985281,421 359,423.014719 359,425.5 C359,427.985281 356.985281,430 354.5,430 L47.5,430 C45.0147186,430 43,427.985281 43,425.5 C43,423.014719 45.0147186,421 47.5,421 L354.5,421 Z M421.5,393 C423.985281,393 426,395.014719 426,397.5 C426,399.985281 423.985281,402 421.5,402 L47.5,402 C45.0147186,402 43,399.985281 43,397.5 C43,395.014719 45.0147186,393 47.5,393 L421.5,393 Z M467.5,365 C469.985281,365 472,367.014719 472,369.5 C472,371.985281 469.985281,374 467.5,374 L47.5,374 C45.0147186,374 43,371.985281 43,369.5 C43,367.014719 45.0147186,365 47.5,365 L467.5,365 Z M467.5,337 C469.985281,337 472,339.014719 472,341.5 C472,343.985281 469.985281,346 467.5,346 L290.5,346 C288.014719,346 286,343.985281 286,341.5 C286,339.014719 288.014719,337 290.5,337 L467.5,337 Z M258.5,337 C260.985281,337 263,339.014719 263,341.5 C263,343.985281 260.985281,346 258.5,346 L47.5,346 C45.0147186,346 43,343.985281 43,341.5 C43,339.014719 45.0147186,337 47.5,337 L258.5,337 Z M534.5,294 C536.985281,294 539,296.014719 539,298.5 C539,300.985281 536.985281,303 534.5,303 L323.5,303 C321.014719,303 319,300.985281 319,298.5 C319,296.014719 321.014719,294 323.5,294 L534.5,294 Z M639.5,294 C641.985281,294 644,296.014719 644,298.5 C644,300.985281 641.985281,303 639.5,303 L561.5,303 C559.014719,303 557,300.985281 557,298.5 C557,296.014719 559.014719,294 561.5,294 L639.5,294 Z M639.5,263 C641.985281,263 644,265.014719 644,267.5 C644,269.985281 641.985281,272 639.5,272 L323.5,272 C321.014719,272 319,269.985281 319,267.5 C319,265.014719 321.014719,263 323.5,263 L639.5,263 Z M391.5,232 C393.985281,232 396,234.014719 396,236.5 C396,238.985281 393.985281,241 391.5,241 L323.5,241 C321.014719,241 319,238.985281 319,236.5 C319,234.014719 321.014719,232 323.5,232 L391.5,232 Z M639.5,232 C641.985281,232 644,234.014719 644,236.5 C644,238.985281 641.985281,241 639.5,241 L418.5,241 C416.014719,241 414,238.985281 414,236.5 C414,234.014719 416.014719,232 418.5,232 L639.5,232 Z M555.5,201 C557.985281,201 560,203.014719 560,205.5 C560,207.985281 557.985281,210 555.5,210 L323.5,210 C321.014719,210 319,207.985281 319,205.5 C319,203.014719 321.014719,201 323.5,201 L555.5,201 Z M639.5,170 C641.985281,170 644,172.014719 644,174.5 C644,176.985281 641.985281,179 639.5,179 L323.5,179 C321.014719,179 319,176.985281 319,174.5 C319,172.014719 321.014719,170 323.5,170 L639.5,170 Z M451.5,139 C453.985281,139 456,141.014719 456,143.5 C456,145.985281 453.985281,148 451.5,148 L323.5,148 C321.014719,148 319,145.985281 319,143.5 C319,141.014719 321.014719,139 323.5,139 L451.5,139 Z M639.5,108 C641.985281,108 644,110.014719 644,112.5 C644,114.985281 641.985281,117 639.5,117 L323.5,117 C321.014719,117 319,114.985281 319,112.5 C319,110.014719 321.014719,108 323.5,108 L639.5,108 Z" id="Rectangle-2" fill="#E2E2E2"></path>
        <rect id="Title" fill="#E2E2E2" x="61" y="46" width="568" height="22" rx="11"></rect>
        <path d="M94.1792571,444.099914 C108.288284,448.050442 199.433002,445.262114 240.415786,420.688284 C281.398569,396.114453 371.587977,320.695889 371.587977,260.832609 C371.587977,200.969328 326.111645,209.500558 326.111645,236.205415 C326.111645,262.910273 347.736837,268.743152 359.102811,275.188284 C370.468786,281.633416 415.501738,280.785701 452.758444,264.565712 C490.015149,248.345723 610.509568,135.721089 615.431445,97.5125967" id="Path-2" stroke="#E2E2E2" stroke-width="3"></path>
        <path d="M12.9188954,111.441934 L30.132381,116.704625 C31.9809148,117.269779 33.0213002,119.226459 32.4561466,121.074993 C31.8909931,122.923526 29.9343129,123.963912 28.085779,123.398758 L10.8722934,118.136068 C9.02375956,117.570914 7.98337423,115.614234 8.54852775,113.7657 C9.11368127,111.917166 11.0703615,110.876781 12.9188954,111.441934 Z M24.0307462,84.9848129 L36.3067167,98.1491796 C37.6250172,99.5628838 37.5476772,101.777611 36.133973,103.095912 C34.7202687,104.414212 32.5055413,104.336872 31.1872408,102.923168 L18.9112703,89.7588014 C17.5929698,88.3450972 17.6703097,86.1303698 19.084014,84.8120692 C20.4977182,83.4937687 22.7124457,83.5711087 24.0307462,84.9848129 Z M52.3788582,74.3538013 L53.6344747,92.3099542 C53.7693137,94.2382422 52.3154361,95.910737 50.3871482,96.045576 C48.4588602,96.1804151 46.7863654,94.7265375 46.6515263,92.7982495 L45.3959098,74.8420966 C45.2610708,72.9138087 46.7149484,71.2413138 48.6432363,71.1064748 C50.5715243,70.9716358 52.2440191,72.4255134 52.3788582,74.3538013 Z" id="Shiny" fill="#E2E2E2"></path>
    </g>
</svg>