<?xml version="1.0" encoding="UTF-8"?>
<svg width="250px" height="250px" viewBox="0 0 250 250" version="1.1" xmlns="http://www.w3.org/2000/svg" xmlns:xlink="http://www.w3.org/1999/xlink">
    <title>Site Logo</title>
    <defs>
        <circle id="path-1" cx="207" cy="64" r="14"></circle>
        <filter x="-25.0%" y="-17.9%" width="150.0%" height="150.0%" filterUnits="objectBoundingBox" id="filter-2">
            <feOffset dx="0" dy="2" in="SourceAlpha" result="shadowOffsetOuter1"></feOffset>
            <feGaussianBlur stdDeviation="2" in="shadowOffsetOuter1" result="shadowBlurOuter1"></feGaussianBlur>
            <feColorMatrix values="0 0 0 0 0   0 0 0 0 0   0 0 0 0 0  0 0 0 0.5 0" type="matrix" in="shadowBlurOuter1"></feColorMatrix>
        </filter>
        <ellipse id="path-3" cx="207.5" cy="74" rx="4.5" ry="5"></ellipse>
        <filter x="-77.8%" y="-50.0%" width="255.6%" height="240.0%" filterUnits="objectBoundingBox" id="filter-4">
            <feOffset dx="0" dy="2" in="SourceAlpha" result="shadowOffsetOuter1"></feOffset>
            <feGaussianBlur stdDeviation="2" in="shadowOffsetOuter1" result="shadowBlurOuter1"></feGaussianBlur>
            <feColorMatrix values="0 0 0 0 0   0 0 0 0 0   0 0 0 0 0  0 0 0 0.5 0" type="matrix" in="shadowBlurOuter1"></feColorMatrix>
        </filter>
    </defs>
    <g id="Site-Logo" stroke="none" stroke-width="1" fill="none" fill-rule="evenodd">
        <path d="M131.5,78 C170.98836,78 203,110.01164 203,149.5 C203,181.843423 181.524578,209.170993 152.055144,218.001298 L110.944856,218.001298 C81.475422,209.170993 60,181.843423 60,149.5 C60,143.793145 60.6685954,138.242449 61.931729,132.921969 L78.283,103.426 L78.2982541,103.442971 L94.583488,88.2550644 C105.359456,81.7456957 117.992301,78 131.5,78 Z" id="Combined-Shape" fill="#565B52"></path>
        <g id="Group" transform="translate(11.823654, 32.000000)">
            <path d="M223.727246,0 C225.3841,-3.04359188e-16 226.727246,1.34314575 226.727246,3 L226.727246,70 C226.727246,71.6568542 225.3841,73 223.727246,73 L68.7272455,73 C67.6500402,73 66.7054383,72.4322574 66.176346,71.5796783 L142.526346,0 L223.727246,0 Z" id="Combined-Shape" fill="#5998C5"></path>
            <polygon id="Triangle-Copy" fill="#DA7422" points="67.176346 71 134.176346 186 0.176345985 186"></polygon>
        </g>
        <path d="M131.5,78.5 C153.631533,78.5 173.397933,88.6261125 186.419049,104.497802 L186.419049,104.497802 L80.5508995,104.5 C79.867031,104.5 79.2473576,104.22537 78.7959695,103.780492 L78.7959695,103.780492 L94.8872742,88.6557244 C105.577884,82.2087802 118.105841,78.5 131.5,78.5 Z" id="Combined-Shape" stroke="#979797" fill="#979797" opacity="0.893009629"></path>
        <g id="Oval">
            <use fill="black" fill-opacity="1" filter="url(#filter-2)" xlink:href="#path-1"></use>
            <use fill="#FFFFFF" fill-rule="evenodd" xlink:href="#path-1"></use>
        </g>
        <g id="Oval">
            <use fill="black" fill-opacity="1" filter="url(#filter-4)" xlink:href="#path-3"></use>
            <use fill="#3C3939" fill-rule="evenodd" xlink:href="#path-3"></use>
        </g>
        <polygon id="Triangle" fill="#565B52" transform="translate(220.000000, 119.500000) rotate(180.000000) translate(-220.000000, -119.500000) " points="220 105 237 134 203 134"></polygon>
    </g>
</svg>